<svg width="73" height="78" viewBox="0 0 73 78" fill="none" xmlns="http://www.w3.org/2000/svg">
<path opacity="0.4" d="M36.138 55.805C38.8387 55.805 41.028 53.4656 41.028 50.5797C41.028 47.6938 38.8387 45.3544 36.138 45.3544C33.4374 45.3544 31.248 47.6938 31.248 50.5797C31.248 53.4656 33.4374 55.805 36.138 55.805Z" fill="#292D32"/>
<path d="M50.0879 30.4477H22.1879C9.88794 30.4477 6.13794 34.4549 6.13794 47.5984V53.561C6.13794 66.7045 9.88794 70.7117 22.1879 70.7117H50.0879C62.3879 70.7117 66.1379 66.7045 66.1379 53.561V47.5984C66.1379 34.4549 62.3879 30.4477 50.0879 30.4477ZM36.1379 60.261C31.1279 60.261 27.0779 55.9012 27.0779 50.5797C27.0779 45.2582 31.1279 40.8984 36.1379 40.8984C41.1479 40.8984 45.1979 45.2582 45.1979 50.5797C45.1979 55.9012 41.1479 60.261 36.1379 60.261Z" fill="#292D32"/>
<path opacity="0.4" d="M21.4979 30.4798V26.7291C21.4979 17.3363 23.9879 11.0851 36.1379 11.0851C48.2879 11.0851 50.7779 17.3363 50.7779 26.7291V30.4798C52.3078 30.5118 53.6879 30.5759 54.9779 30.7683V26.7291C54.9779 18.0736 53.0279 6.59707 36.1379 6.59707C19.2479 6.59707 17.2979 18.0736 17.2979 26.7291V30.7362C18.5579 30.5759 19.9679 30.4798 21.4979 30.4798Z" fill="#292D32"/>
</svg>
