<svg width="72" height="72" viewBox="0 0 72 72" fill="none" xmlns="http://www.w3.org/2000/svg">
<path opacity="0.4" d="M62.73 33.36C62.73 48.03 52.0801 61.77 37.5301 65.79C36.5401 66.06 35.46 66.06 34.47 65.79C19.92 61.77 9.27002 48.03 9.27002 33.36V20.19C9.27002 17.73 11.1301 14.94 13.4401 14.01L30.15 7.17002C33.9 5.64002 38.13 5.64002 41.88 7.17002L58.59 14.01C60.87 14.94 62.7601 17.73 62.7601 20.19L62.73 33.36Z" fill="#EAC435"/>
<path d="M43.5 31.5C43.5 27.36 40.14 24 36 24C31.86 24 28.5 27.36 28.5 31.5C28.5 34.86 30.72 37.65 33.75 38.61V46.5C33.75 47.73 34.77 48.75 36 48.75C37.23 48.75 38.25 47.73 38.25 46.5V38.61C41.28 37.65 43.5 34.86 43.5 31.5Z" fill="#EAC435"/>
</svg>
