<svg width="66" height="13" viewBox="0 0 66 13" fill="none" xmlns="http://www.w3.org/2000/svg">
<path d="M6.37284 0.741806C6.40575 0.677544 6.49759 0.677544 6.53049 0.741807L8.16017 3.92453C8.17303 3.94965 8.1971 3.96714 8.22497 3.97161L11.7555 4.53801C11.8268 4.54944 11.8552 4.63679 11.8042 4.68794L9.28088 7.22137C9.26097 7.24137 9.25177 7.26966 9.25613 7.29755L9.80845 10.8303C9.8196 10.9017 9.7453 10.9556 9.68091 10.923L6.49171 9.30602C6.46654 9.29325 6.43679 9.29325 6.41162 9.30602L3.22243 10.923C3.15803 10.9556 3.08373 10.9017 3.09488 10.8303L3.6472 7.29755C3.65156 7.26966 3.64237 7.24137 3.62245 7.22137L1.0991 4.68794C1.04815 4.63679 1.07653 4.54944 1.14782 4.53801L4.67836 3.97161C4.70623 3.96714 4.7303 3.94965 4.74316 3.92453L6.37284 0.741806Z" fill="#00CA69"/>
<path d="M19.7947 0.741806C19.8276 0.677544 19.9195 0.677544 19.9524 0.741807L21.582 3.92453C21.5949 3.94965 21.619 3.96714 21.6468 3.97161L25.1774 4.53801C25.2487 4.54944 25.2771 4.63679 25.2261 4.68794L22.7028 7.22137C22.6828 7.24137 22.6736 7.26966 22.678 7.29755L23.2303 10.8303C23.2415 10.9017 23.1672 10.9556 23.1028 10.923L19.9136 9.30602C19.8884 9.29325 19.8587 9.29325 19.8335 9.30602L16.6443 10.923C16.5799 10.9556 16.5056 10.9017 16.5168 10.8303L17.0691 7.29755C17.0734 7.26966 17.0642 7.24137 17.0443 7.22137L14.521 4.68794C14.47 4.63679 14.4984 4.54944 14.5697 4.53801L18.1002 3.97161C18.1281 3.96714 18.1522 3.94965 18.165 3.92453L19.7947 0.741806Z" fill="#00CA69"/>
<path d="M33.0789 0.741837C33.1118 0.677574 33.2036 0.677574 33.2365 0.741837L34.8662 3.92456C34.8791 3.94968 34.9032 3.96717 34.931 3.97164L38.4616 4.53804C38.5329 4.54947 38.5612 4.63682 38.5103 4.68797L35.9869 7.2214C35.967 7.2414 35.9578 7.26969 35.9622 7.29758L36.5145 10.8304C36.5257 10.9017 36.4514 10.9557 36.387 10.923L33.1978 9.30605C33.1726 9.29328 33.1428 9.29328 33.1177 9.30605L29.9285 10.923C29.8641 10.9557 29.7898 10.9017 29.8009 10.8304L30.3533 7.29758C30.3576 7.26969 30.3484 7.2414 30.3285 7.2214L27.8052 4.68797C27.7542 4.63682 27.7826 4.54947 27.8539 4.53804L31.3844 3.97164C31.4123 3.96717 31.4364 3.94968 31.4492 3.92456L33.0789 0.741837Z" fill="#00CA69"/>
<path d="M46.3631 0.741806C46.396 0.677544 46.4878 0.677544 46.5207 0.741807L48.1504 3.92453C48.1633 3.94965 48.1873 3.96714 48.2152 3.97161L51.7457 4.53801C51.817 4.54944 51.8454 4.63679 51.7945 4.68794L49.2711 7.22137C49.2512 7.24137 49.242 7.26966 49.2464 7.29755L49.7987 10.8303C49.8098 10.9017 49.7355 10.9556 49.6711 10.923L46.4819 9.30602C46.4568 9.29325 46.427 9.29325 46.4019 9.30602L43.2127 10.923C43.1483 10.9556 43.074 10.9017 43.0851 10.8303L43.6374 7.29755C43.6418 7.26966 43.6326 7.24137 43.6127 7.22137L41.0893 4.68794C41.0384 4.63679 41.0668 4.54944 41.1381 4.53801L44.6686 3.97161C44.6965 3.96714 44.7205 3.94965 44.7334 3.92453L46.3631 0.741806Z" fill="#00CA69"/>
<path d="M59.6473 0.741806C59.6802 0.677544 59.772 0.677544 59.8049 0.741807L61.4346 3.92453C61.4474 3.94965 61.4715 3.96714 61.4994 3.97161L65.0299 4.53801C65.1012 4.54944 65.1296 4.63679 65.0786 4.68794L62.5553 7.22137C62.5354 7.24137 62.5262 7.26966 62.5305 7.29755L63.0829 10.8303C63.094 10.9017 63.0197 10.9556 62.9553 10.923L59.7661 9.30602C59.741 9.29325 59.7112 9.29325 59.686 9.30602L56.4968 10.923C56.4324 10.9556 56.3581 10.9017 56.3693 10.8303L56.9216 7.29755C56.926 7.26966 56.9168 7.24137 56.8969 7.22137L54.3735 4.68794C54.3226 4.63679 54.3509 4.54944 54.4222 4.53801L57.9528 3.97161C57.9806 3.96714 58.0047 3.94965 58.0176 3.92453L59.6473 0.741806Z" fill="#D6D9DD"/>
</svg>
