<svg width="20" height="20" viewBox="0 0 20 20" fill="none" xmlns="http://www.w3.org/2000/svg">
<path d="M17.4752 0.833252H15.0252C13.9668 0.833252 13.3335 1.46659 13.3335 2.52492V4.97492C13.3335 6.03325 13.9668 6.66659 15.0252 6.66659H17.4752C18.5335 6.66659 19.1668 6.03325 19.1668 4.97492V2.52492C19.1668 1.46659 18.5335 0.833252 17.4752 0.833252ZM17.6585 3.59159C17.5585 3.69159 17.4252 3.74159 17.2918 3.74159C17.1585 3.74159 17.0252 3.69159 16.9252 3.59159L16.7752 3.44159V5.30825C16.7752 5.59992 16.5418 5.83325 16.2502 5.83325C15.9585 5.83325 15.7252 5.59992 15.7252 5.30825V3.44159L15.5752 3.59159C15.3752 3.79159 15.0418 3.79159 14.8418 3.59159C14.6418 3.39159 14.6418 3.05825 14.8418 2.85825L15.8835 1.81659C15.9252 1.77492 15.9835 1.74159 16.0418 1.71659C16.0585 1.70825 16.0752 1.70825 16.0918 1.69992C16.1335 1.68325 16.1752 1.67492 16.2252 1.67492C16.2418 1.67492 16.2585 1.67492 16.2752 1.67492C16.3335 1.67492 16.3835 1.68325 16.4418 1.70825C16.4502 1.70825 16.4502 1.70825 16.4585 1.70825C16.5168 1.73325 16.5668 1.76659 16.6085 1.80825C16.6168 1.81659 16.6168 1.81659 16.6252 1.81659L17.6668 2.85825C17.8668 3.05825 17.8668 3.39159 17.6585 3.59159Z" fill="#01B3F8"/>
<path opacity="0.4" d="M18.3332 6.47492V7.49992H1.6665V6.28325C1.6665 4.37492 3.2165 2.83325 5.12484 2.83325H13.3332V4.97492C13.3332 6.03325 13.9665 6.66659 15.0248 6.66659H17.4748C17.8082 6.66659 18.0915 6.60825 18.3332 6.47492Z" fill="#01B3F8"/>
<path d="M1.6665 7.5V13.7167C1.6665 15.625 3.2165 17.1667 5.12484 17.1667H14.8748C16.7832 17.1667 18.3332 15.625 18.3332 13.7167V7.5H1.6665ZM6.6665 14.375H4.99984C4.65817 14.375 4.37484 14.0917 4.37484 13.75C4.37484 13.4083 4.65817 13.125 4.99984 13.125H6.6665C7.00817 13.125 7.2915 13.4083 7.2915 13.75C7.2915 14.0917 7.00817 14.375 6.6665 14.375ZM12.0832 14.375H8.74984C8.40817 14.375 8.12484 14.0917 8.12484 13.75C8.12484 13.4083 8.40817 13.125 8.74984 13.125H12.0832C12.4248 13.125 12.7082 13.4083 12.7082 13.75C12.7082 14.0917 12.4248 14.375 12.0832 14.375Z" fill="#01B3F8"/>
</svg>
